<?xml version="1.0" encoding="UTF-8" standalone="no"?>
<!DOCTYPE svg PUBLIC "-//W3C//DTD SVG 1.1//EN"
 "http://www.w3.org/Graphics/SVG/1.1/DTD/svg11.dtd">
<!-- Generated by graphviz version 12.1.0 (20240811.2233)
 -->
<!-- Title: G Pages: 1 -->
<svg width="2453pt" height="577pt"
 viewBox="0.00 0.00 2453.00 577.00" xmlns="http://www.w3.org/2000/svg" xmlns:xlink="http://www.w3.org/1999/xlink">
<g id="graph0" class="graph" transform="scale(1 1) rotate(0) translate(4 573)">
<title>G</title>
<polygon fill="white" stroke="none" points="-4,4 -4,-573 2449,-573 2449,4 -4,4"/>
<g id="clust1" class="cluster">
<title>cluster_module.k3s</title>
<polygon fill="none" stroke="black" points="388.62,-208 388.62,-525 2241.25,-525 2241.25,-208 388.62,-208"/>
<text text-anchor="middle" x="1314.94" y="-507.7" font-family="sans-serif" font-size="14.00">module.k3s</text>
</g>
<!-- data.tencentcloud_availability_zones_by_product.default -->
<g id="node1" class="node">
<title>data.tencentcloud_availability_zones_by_product.default</title>
<polygon fill="none" stroke="black" points="672.5,-198 318.25,-198 318.25,-162 672.5,-162 672.5,-198"/>
<text text-anchor="middle" x="495.38" y="-174.2" font-family="sans-serif" font-size="14.00">data.tencentcloud_availability_zones_by_product.default</text>
</g>
<!-- data.tencentcloud_images.default -->
<g id="node2" class="node">
<title>data.tencentcloud_images.default</title>
<polygon fill="none" stroke="black" points="604.62,-144 386.12,-144 386.12,-108 604.62,-108 604.62,-144"/>
<text text-anchor="middle" x="495.38" y="-120.2" font-family="sans-serif" font-size="14.00">data.tencentcloud_images.default</text>
</g>
<!-- data.tencentcloud_instance_types.default -->
<g id="node3" class="node">
<title>data.tencentcloud_instance_types.default</title>
<polygon fill="none" stroke="black" points="627.5,-90 363.25,-90 363.25,-54 627.5,-54 627.5,-90"/>
<text text-anchor="middle" x="495.38" y="-66.2" font-family="sans-serif" font-size="14.00">data.tencentcloud_instance_types.default</text>
</g>
<!-- helm_release.argo_cd -->
<g id="node4" class="node">
<title>helm_release.argo_cd</title>
<polygon fill="none" stroke="black" points="2432.25,-373 2282,-373 2282,-337 2432.25,-337 2432.25,-373"/>
<text text-anchor="middle" x="2357.12" y="-349.2" font-family="sans-serif" font-size="14.00">helm_release.argo_cd</text>
</g>
<!-- null_resource.write_kubeconfig -->
<g id="node5" class="node">
<title>null_resource.write_kubeconfig</title>
<polygon fill="none" stroke="black" points="2229.88,-569 2027.88,-569 2027.88,-533 2229.88,-533 2229.88,-569"/>
<text text-anchor="middle" x="2128.88" y="-545.2" font-family="sans-serif" font-size="14.00">null_resource.write_kubeconfig</text>
</g>
<!-- helm_release.argo_cd&#45;&gt;null_resource.write_kubeconfig -->
<g id="edge1" class="edge">
<title>helm_release.argo_cd&#45;&gt;null_resource.write_kubeconfig</title>
<path fill="none" stroke="black" d="M2281.51,-371.66C2276.99,-374.58 2272.83,-377.99 2269.25,-382 2224.96,-431.61 2288.12,-481.81 2241.25,-529 2240.62,-529.63 2239.99,-530.24 2239.34,-530.84"/>
<polygon fill="black" stroke="black" points="2237.27,-528.02 2231.48,-536.89 2241.54,-533.56 2237.27,-528.02"/>
</g>
<!-- module.k3s.null_resource.kubernetes_ready -->
<g id="node18" class="node">
<title>module.k3s.null_resource.kubernetes_ready</title>
<polygon fill="none" stroke="black" points="2233.25,-373 2024.5,-373 2024.5,-337 2233.25,-337 2233.25,-373"/>
<text text-anchor="middle" x="2128.88" y="-349.2" font-family="sans-serif" font-size="14.00">null_resource.kubernetes_ready</text>
</g>
<!-- helm_release.argo_cd&#45;&gt;module.k3s.null_resource.kubernetes_ready -->
<g id="edge2" class="edge">
<title>helm_release.argo_cd&#45;&gt;module.k3s.null_resource.kubernetes_ready</title>
<path fill="none" stroke="black" d="M2281.73,-355C2269.9,-355 2257.42,-355 2244.91,-355"/>
<polygon fill="black" stroke="black" points="2244.95,-351.5 2234.95,-355 2244.95,-358.5 2244.95,-351.5"/>
</g>
<!-- module.k3s.tls_locally_signed_cert.master_user -->
<g id="node26" class="node">
<title>module.k3s.tls_locally_signed_cert.master_user</title>
<polygon fill="none" stroke="black" points="1253.12,-306 1021.88,-306 1021.88,-270 1253.12,-270 1253.12,-306"/>
<text text-anchor="middle" x="1137.5" y="-282.2" font-family="sans-serif" font-size="14.00">tls_locally_signed_cert.master_user</text>
</g>
<!-- helm_release.argo_cd&#45;&gt;module.k3s.tls_locally_signed_cert.master_user -->
<g id="edge3" class="edge">
<title>helm_release.argo_cd&#45;&gt;module.k3s.tls_locally_signed_cert.master_user</title>
<path fill="none" stroke="black" d="M2326.73,-336.65C2254.34,-293.27 2060.46,-188 1883.62,-188 1883.62,-188 1883.62,-188 1632,-188 1583.81,-188 1572.56,-197.84 1525.25,-207 1497.2,-212.43 1341.86,-245.1 1236.78,-267.25"/>
<polygon fill="black" stroke="black" points="1236.37,-263.76 1227.31,-269.25 1237.81,-270.61 1236.37,-263.76"/>
</g>
<!-- tencentcloud_instance.k3s -->
<g id="node6" class="node">
<title>tencentcloud_instance.k3s</title>
<polygon fill="none" stroke="black" points="928.12,-144 753.12,-144 753.12,-108 928.12,-108 928.12,-144"/>
<text text-anchor="middle" x="840.62" y="-120.2" font-family="sans-serif" font-size="14.00">tencentcloud_instance.k3s</text>
</g>
<!-- tencentcloud_instance.k3s&#45;&gt;data.tencentcloud_availability_zones_by_product.default -->
<g id="edge4" class="edge">
<title>tencentcloud_instance.k3s&#45;&gt;data.tencentcloud_availability_zones_by_product.default</title>
<path fill="none" stroke="black" d="M752.91,-140.15C727.04,-144.33 698.63,-148.89 672.5,-153 658.38,-155.22 643.61,-157.52 628.9,-159.8"/>
<polygon fill="black" stroke="black" points="628.51,-156.32 619.16,-161.31 629.58,-163.24 628.51,-156.32"/>
</g>
<!-- tencentcloud_instance.k3s&#45;&gt;data.tencentcloud_images.default -->
<g id="edge5" class="edge">
<title>tencentcloud_instance.k3s&#45;&gt;data.tencentcloud_images.default</title>
<path fill="none" stroke="black" d="M753.01,-126C711.54,-126 661.21,-126 616.15,-126"/>
<polygon fill="black" stroke="black" points="616.33,-122.5 606.33,-126 616.33,-129.5 616.33,-122.5"/>
</g>
<!-- tencentcloud_instance.k3s&#45;&gt;data.tencentcloud_instance_types.default -->
<g id="edge6" class="edge">
<title>tencentcloud_instance.k3s&#45;&gt;data.tencentcloud_instance_types.default</title>
<path fill="none" stroke="black" d="M752.91,-111.85C727.04,-107.67 698.63,-103.11 672.5,-99 658.38,-96.78 643.61,-94.48 628.9,-92.2"/>
<polygon fill="black" stroke="black" points="629.58,-88.76 619.16,-90.69 628.51,-95.68 629.58,-88.76"/>
</g>
<!-- tencentcloud_security_group_rule_set.k3s_all_in_one -->
<g id="node9" class="node">
<title>tencentcloud_security_group_rule_set.k3s_all_in_one</title>
<polygon fill="none" stroke="black" points="664.25,-36 326.5,-36 326.5,0 664.25,0 664.25,-36"/>
<text text-anchor="middle" x="495.38" y="-12.2" font-family="sans-serif" font-size="14.00">tencentcloud_security_group_rule_set.k3s_all_in_one</text>
</g>
<!-- tencentcloud_instance.k3s&#45;&gt;tencentcloud_security_group_rule_set.k3s_all_in_one -->
<g id="edge7" class="edge">
<title>tencentcloud_instance.k3s&#45;&gt;tencentcloud_security_group_rule_set.k3s_all_in_one</title>
<path fill="none" stroke="black" d="M808.75,-107.54C776.05,-88.84 722.37,-60.52 672.5,-45 665.63,-42.86 658.56,-40.89 651.38,-39.07"/>
<polygon fill="black" stroke="black" points="652.42,-35.72 641.88,-36.79 650.78,-42.53 652.42,-35.72"/>
</g>
<!-- tencentcloud_key_pair.k3s -->
<g id="node7" class="node">
<title>tencentcloud_key_pair.k3s</title>
<polygon fill="none" stroke="black" points="2445,-427 2269.25,-427 2269.25,-391 2445,-391 2445,-427"/>
<text text-anchor="middle" x="2357.12" y="-403.2" font-family="sans-serif" font-size="14.00">tencentcloud_key_pair.k3s</text>
</g>
<!-- tencentcloud_security_group.k3s_all_in_one -->
<g id="node8" class="node">
<title>tencentcloud_security_group.k3s_all_in_one</title>
<polygon fill="none" stroke="black" points="282.25,-36 0,-36 0,0 282.25,0 282.25,-36"/>
<text text-anchor="middle" x="141.12" y="-12.2" font-family="sans-serif" font-size="14.00">tencentcloud_security_group.k3s_all_in_one</text>
</g>
<!-- tencentcloud_security_group_rule_set.k3s_all_in_one&#45;&gt;tencentcloud_security_group.k3s_all_in_one -->
<g id="edge8" class="edge">
<title>tencentcloud_security_group_rule_set.k3s_all_in_one&#45;&gt;tencentcloud_security_group.k3s_all_in_one</title>
<path fill="none" stroke="black" d="M326.25,-18C315.52,-18 304.75,-18 294.11,-18"/>
<polygon fill="black" stroke="black" points="294.12,-14.5 284.12,-18 294.12,-21.5 294.12,-14.5"/>
</g>
<!-- module.k3s.data.http.k3s_installer -->
<g id="node10" class="node">
<title>module.k3s.data.http.k3s_installer</title>
<polygon fill="none" stroke="black" points="1211.12,-360 1063.88,-360 1063.88,-324 1211.12,-324 1211.12,-360"/>
<text text-anchor="middle" x="1137.5" y="-336.2" font-family="sans-serif" font-size="14.00">data.http.k3s_installer</text>
</g>
<!-- module.k3s.data.http.k3s_version -->
<g id="node11" class="node">
<title>module.k3s.data.http.k3s_version</title>
<polygon fill="none" stroke="black" points="912.75,-360 768.5,-360 768.5,-324 912.75,-324 912.75,-360"/>
<text text-anchor="middle" x="840.62" y="-336.2" font-family="sans-serif" font-size="14.00">data.http.k3s_version</text>
</g>
<!-- module.k3s.data.http.k3s_installer&#45;&gt;module.k3s.data.http.k3s_version -->
<g id="edge9" class="edge">
<title>module.k3s.data.http.k3s_installer&#45;&gt;module.k3s.data.http.k3s_version</title>
<path fill="none" stroke="black" d="M1063.61,-342C1021.5,-342 968.37,-342 924.65,-342"/>
<polygon fill="black" stroke="black" points="924.68,-338.5 914.68,-342 924.68,-345.5 924.68,-338.5"/>
</g>
<!-- module.k3s.null_resource.agents_annotation -->
<g id="node12" class="node">
<title>module.k3s.null_resource.agents_annotation</title>
<polygon fill="none" stroke="black" points="1988.5,-400 1776.75,-400 1776.75,-364 1988.5,-364 1988.5,-400"/>
<text text-anchor="middle" x="1882.62" y="-376.2" font-family="sans-serif" font-size="14.00">null_resource.agents_annotation</text>
</g>
<!-- module.k3s.null_resource.agents_install -->
<g id="node14" class="node">
<title>module.k3s.null_resource.agents_install</title>
<polygon fill="none" stroke="black" points="1724.62,-360 1541.38,-360 1541.38,-324 1724.62,-324 1724.62,-360"/>
<text text-anchor="middle" x="1633" y="-336.2" font-family="sans-serif" font-size="14.00">null_resource.agents_install</text>
</g>
<!-- module.k3s.null_resource.agents_annotation&#45;&gt;module.k3s.null_resource.agents_install -->
<g id="edge10" class="edge">
<title>module.k3s.null_resource.agents_annotation&#45;&gt;module.k3s.null_resource.agents_install</title>
<path fill="none" stroke="black" d="M1776.25,-364.98C1762.88,-362.82 1749.22,-360.61 1735.91,-358.46"/>
<polygon fill="black" stroke="black" points="1736.74,-355.05 1726.31,-356.91 1735.63,-361.96 1736.74,-355.05"/>
</g>
<!-- module.k3s.null_resource.agents_drain -->
<g id="node13" class="node">
<title>module.k3s.null_resource.agents_drain</title>
<polygon fill="none" stroke="black" points="1972,-454 1793.25,-454 1793.25,-418 1972,-418 1972,-454"/>
<text text-anchor="middle" x="1882.62" y="-430.2" font-family="sans-serif" font-size="14.00">null_resource.agents_drain</text>
</g>
<!-- module.k3s.null_resource.agents_drain&#45;&gt;module.k3s.null_resource.agents_install -->
<g id="edge11" class="edge">
<title>module.k3s.null_resource.agents_drain&#45;&gt;module.k3s.null_resource.agents_install</title>
<path fill="none" stroke="black" d="M1797.56,-417.53C1790.39,-415.01 1783.36,-412.17 1776.75,-409 1758.72,-400.34 1758.29,-391.61 1740.75,-382 1728.95,-375.54 1715.89,-369.69 1703.08,-364.58"/>
<polygon fill="black" stroke="black" points="1704.4,-361.34 1693.81,-361.01 1701.88,-367.87 1704.4,-361.34"/>
</g>
<!-- module.k3s.null_resource.servers_install -->
<g id="node21" class="node">
<title>module.k3s.null_resource.servers_install</title>
<polygon fill="none" stroke="black" points="1489.25,-360 1302.25,-360 1302.25,-324 1489.25,-324 1489.25,-360"/>
<text text-anchor="middle" x="1395.75" y="-336.2" font-family="sans-serif" font-size="14.00">null_resource.servers_install</text>
</g>
<!-- module.k3s.null_resource.agents_install&#45;&gt;module.k3s.null_resource.servers_install -->
<g id="edge12" class="edge">
<title>module.k3s.null_resource.agents_install&#45;&gt;module.k3s.null_resource.servers_install</title>
<path fill="none" stroke="black" d="M1541.05,-342C1527.81,-342 1514.11,-342 1500.64,-342"/>
<polygon fill="black" stroke="black" points="1500.92,-338.5 1490.92,-342 1500.92,-345.5 1500.92,-338.5"/>
</g>
<!-- module.k3s.null_resource.agents_label -->
<g id="node15" class="node">
<title>module.k3s.null_resource.agents_label</title>
<polygon fill="none" stroke="black" points="1971.25,-292 1794,-292 1794,-256 1971.25,-256 1971.25,-292"/>
<text text-anchor="middle" x="1882.62" y="-268.2" font-family="sans-serif" font-size="14.00">null_resource.agents_label</text>
</g>
<!-- module.k3s.null_resource.agents_label&#45;&gt;module.k3s.null_resource.agents_install -->
<g id="edge13" class="edge">
<title>module.k3s.null_resource.agents_label&#45;&gt;module.k3s.null_resource.agents_install</title>
<path fill="none" stroke="black" d="M1805.42,-292.48C1795.72,-295.17 1785.97,-298.03 1776.75,-301 1760.41,-306.26 1757.1,-309.77 1740.75,-315 1734.74,-316.92 1728.51,-318.79 1722.21,-320.6"/>
<polygon fill="black" stroke="black" points="1721.72,-317.1 1713.03,-323.17 1723.61,-323.84 1721.72,-317.1"/>
</g>
<!-- module.k3s.null_resource.agents_taint -->
<g id="node16" class="node">
<title>module.k3s.null_resource.agents_taint</title>
<polygon fill="none" stroke="black" points="1969.75,-346 1795.5,-346 1795.5,-310 1969.75,-310 1969.75,-346"/>
<text text-anchor="middle" x="1882.62" y="-322.2" font-family="sans-serif" font-size="14.00">null_resource.agents_taint</text>
</g>
<!-- module.k3s.null_resource.agents_taint&#45;&gt;module.k3s.null_resource.agents_install -->
<g id="edge14" class="edge">
<title>module.k3s.null_resource.agents_taint&#45;&gt;module.k3s.null_resource.agents_install</title>
<path fill="none" stroke="black" d="M1795.02,-332.9C1776.01,-333.97 1755.72,-335.12 1736.17,-336.22"/>
<polygon fill="black" stroke="black" points="1736.06,-332.72 1726.27,-336.78 1736.45,-339.71 1736.06,-332.72"/>
</g>
<!-- module.k3s.null_resource.k8s_ca_certificates_install -->
<g id="node17" class="node">
<title>module.k3s.null_resource.k8s_ca_certificates_install</title>
<polygon fill="none" stroke="black" points="1266.25,-252 1008.75,-252 1008.75,-216 1266.25,-216 1266.25,-252"/>
<text text-anchor="middle" x="1137.5" y="-228.2" font-family="sans-serif" font-size="14.00">null_resource.k8s_ca_certificates_install</text>
</g>
<!-- module.k3s.null_resource.k8s_ca_certificates_install&#45;&gt;tencentcloud_instance.k3s -->
<g id="edge15" class="edge">
<title>module.k3s.null_resource.k8s_ca_certificates_install&#45;&gt;tencentcloud_instance.k3s</title>
<path fill="none" stroke="black" d="M1086.14,-215.56C1035.25,-196.92 956.59,-168.11 902.29,-148.22"/>
<polygon fill="black" stroke="black" points="903.79,-145.04 893.19,-144.89 901.38,-151.61 903.79,-145.04"/>
</g>
<!-- module.k3s.tls_self_signed_cert.kubernetes_ca_certs -->
<g id="node29" class="node">
<title>module.k3s.tls_self_signed_cert.kubernetes_ca_certs</title>
<polygon fill="none" stroke="black" points="972.75,-252 708.5,-252 708.5,-216 972.75,-216 972.75,-252"/>
<text text-anchor="middle" x="840.62" y="-228.2" font-family="sans-serif" font-size="14.00">tls_self_signed_cert.kubernetes_ca_certs</text>
</g>
<!-- module.k3s.null_resource.k8s_ca_certificates_install&#45;&gt;module.k3s.tls_self_signed_cert.kubernetes_ca_certs -->
<g id="edge16" class="edge">
<title>module.k3s.null_resource.k8s_ca_certificates_install&#45;&gt;module.k3s.tls_self_signed_cert.kubernetes_ca_certs</title>
<path fill="none" stroke="black" d="M1008.45,-234C1000.42,-234 992.31,-234 984.23,-234"/>
<polygon fill="black" stroke="black" points="984.33,-230.5 974.33,-234 984.33,-237.5 984.33,-230.5"/>
</g>
<!-- module.k3s.null_resource.kubernetes_ready&#45;&gt;module.k3s.null_resource.agents_annotation -->
<g id="edge17" class="edge">
<title>module.k3s.null_resource.kubernetes_ready&#45;&gt;module.k3s.null_resource.agents_annotation</title>
<path fill="none" stroke="black" d="M2024.29,-366.45C2016.34,-367.33 2008.28,-368.22 2000.25,-369.11"/>
<polygon fill="black" stroke="black" points="1999.99,-365.62 1990.44,-370.19 2000.76,-372.57 1999.99,-365.62"/>
</g>
<!-- module.k3s.null_resource.kubernetes_ready&#45;&gt;module.k3s.null_resource.agents_drain -->
<g id="edge18" class="edge">
<title>module.k3s.null_resource.kubernetes_ready&#45;&gt;module.k3s.null_resource.agents_drain</title>
<path fill="none" stroke="black" d="M2084.1,-373.49C2056.88,-384.6 2020.99,-398.56 1988.5,-409 1982.74,-410.85 1976.77,-412.66 1970.73,-414.42"/>
<polygon fill="black" stroke="black" points="1969.95,-411 1961.28,-417.09 1971.86,-417.74 1969.95,-411"/>
</g>
<!-- module.k3s.null_resource.kubernetes_ready&#45;&gt;module.k3s.null_resource.agents_label -->
<g id="edge19" class="edge">
<title>module.k3s.null_resource.kubernetes_ready&#45;&gt;module.k3s.null_resource.agents_label</title>
<path fill="none" stroke="black" d="M2084.1,-336.51C2056.88,-325.4 2020.99,-311.44 1988.5,-301 1982.74,-299.15 1976.77,-297.34 1970.73,-295.58"/>
<polygon fill="black" stroke="black" points="1971.86,-292.26 1961.28,-292.91 1969.95,-299 1971.86,-292.26"/>
</g>
<!-- module.k3s.null_resource.kubernetes_ready&#45;&gt;module.k3s.null_resource.agents_taint -->
<g id="edge20" class="edge">
<title>module.k3s.null_resource.kubernetes_ready&#45;&gt;module.k3s.null_resource.agents_taint</title>
<path fill="none" stroke="black" d="M2024.29,-343.55C2010.03,-341.97 1995.42,-340.36 1981.28,-338.79"/>
<polygon fill="black" stroke="black" points="1981.87,-335.34 1971.55,-337.72 1981.1,-342.3 1981.87,-335.34"/>
</g>
<!-- module.k3s.null_resource.servers_annotation -->
<g id="node19" class="node">
<title>module.k3s.null_resource.servers_annotation</title>
<polygon fill="none" stroke="black" points="1740.75,-427 1525.25,-427 1525.25,-391 1740.75,-391 1740.75,-427"/>
<text text-anchor="middle" x="1633" y="-403.2" font-family="sans-serif" font-size="14.00">null_resource.servers_annotation</text>
</g>
<!-- module.k3s.null_resource.kubernetes_ready&#45;&gt;module.k3s.null_resource.servers_annotation -->
<g id="edge21" class="edge">
<title>module.k3s.null_resource.kubernetes_ready&#45;&gt;module.k3s.null_resource.servers_annotation</title>
<path fill="none" stroke="black" d="M2112.1,-373.19C2088.36,-399.02 2040.63,-445.16 1988.5,-463 1899.46,-493.46 1867.6,-487.56 1776.75,-463 1758.87,-458.17 1757.71,-449.45 1740.75,-442 1731.85,-438.09 1722.34,-434.44 1712.8,-431.11"/>
<polygon fill="black" stroke="black" points="1714.08,-427.85 1703.48,-427.97 1711.84,-434.48 1714.08,-427.85"/>
</g>
<!-- module.k3s.null_resource.servers_drain -->
<g id="node20" class="node">
<title>module.k3s.null_resource.servers_drain</title>
<polygon fill="none" stroke="black" points="1724.25,-487 1541.75,-487 1541.75,-451 1724.25,-451 1724.25,-487"/>
<text text-anchor="middle" x="1633" y="-463.2" font-family="sans-serif" font-size="14.00">null_resource.servers_drain</text>
</g>
<!-- module.k3s.null_resource.kubernetes_ready&#45;&gt;module.k3s.null_resource.servers_drain -->
<g id="edge22" class="edge">
<title>module.k3s.null_resource.kubernetes_ready&#45;&gt;module.k3s.null_resource.servers_drain</title>
<path fill="none" stroke="black" d="M2114.55,-373.26C2092.26,-402.05 2044.34,-456.88 1988.5,-478 1902.78,-510.42 1796.89,-502.09 1723.26,-489.44"/>
<polygon fill="black" stroke="black" points="1724.14,-486.04 1713.68,-487.73 1722.91,-492.94 1724.14,-486.04"/>
</g>
<!-- module.k3s.null_resource.servers_label -->
<g id="node22" class="node">
<title>module.k3s.null_resource.servers_label</title>
<polygon fill="none" stroke="black" points="1723.5,-252 1542.5,-252 1542.5,-216 1723.5,-216 1723.5,-252"/>
<text text-anchor="middle" x="1633" y="-228.2" font-family="sans-serif" font-size="14.00">null_resource.servers_label</text>
</g>
<!-- module.k3s.null_resource.kubernetes_ready&#45;&gt;module.k3s.null_resource.servers_label -->
<g id="edge23" class="edge">
<title>module.k3s.null_resource.kubernetes_ready&#45;&gt;module.k3s.null_resource.servers_label</title>
<path fill="none" stroke="black" d="M2115.5,-336.7C2093.9,-306.59 2046.07,-247.68 1988.5,-225 1944.12,-207.52 1823.58,-214.5 1735.34,-222.73"/>
<polygon fill="black" stroke="black" points="1735.06,-219.24 1725.44,-223.67 1735.73,-226.21 1735.06,-219.24"/>
</g>
<!-- module.k3s.null_resource.servers_taint -->
<g id="node23" class="node">
<title>module.k3s.null_resource.servers_taint</title>
<polygon fill="none" stroke="black" points="1722,-306 1544,-306 1544,-270 1722,-270 1722,-306"/>
<text text-anchor="middle" x="1633" y="-282.2" font-family="sans-serif" font-size="14.00">null_resource.servers_taint</text>
</g>
<!-- module.k3s.null_resource.kubernetes_ready&#45;&gt;module.k3s.null_resource.servers_taint -->
<g id="edge24" class="edge">
<title>module.k3s.null_resource.kubernetes_ready&#45;&gt;module.k3s.null_resource.servers_taint</title>
<path fill="none" stroke="black" d="M2112.1,-336.81C2088.36,-310.98 2040.63,-264.84 1988.5,-247 1899.46,-216.54 1869.25,-229.65 1776.75,-247 1759.88,-250.17 1757.1,-255.77 1740.75,-261 1734.74,-262.92 1728.51,-264.79 1722.21,-266.6"/>
<polygon fill="black" stroke="black" points="1721.72,-263.1 1713.03,-269.17 1723.61,-269.84 1721.72,-263.1"/>
</g>
<!-- module.k3s.null_resource.servers_annotation&#45;&gt;module.k3s.null_resource.servers_install -->
<g id="edge25" class="edge">
<title>module.k3s.null_resource.servers_annotation&#45;&gt;module.k3s.null_resource.servers_install</title>
<path fill="none" stroke="black" d="M1567.09,-390.51C1537.78,-382.17 1502.96,-372.25 1472.47,-363.56"/>
<polygon fill="black" stroke="black" points="1473.48,-360.21 1462.9,-360.84 1471.56,-366.94 1473.48,-360.21"/>
</g>
<!-- module.k3s.null_resource.servers_drain&#45;&gt;module.k3s.null_resource.servers_install -->
<g id="edge26" class="edge">
<title>module.k3s.null_resource.servers_drain&#45;&gt;module.k3s.null_resource.servers_install</title>
<path fill="none" stroke="black" d="M1560.65,-450.56C1548.56,-446.42 1536.34,-441.57 1525.25,-436 1488.3,-417.43 1450.64,-388.46 1425.73,-367.58"/>
<polygon fill="black" stroke="black" points="1428.19,-365.08 1418.31,-361.27 1423.66,-370.42 1428.19,-365.08"/>
</g>
<!-- module.k3s.null_resource.servers_install&#45;&gt;module.k3s.data.http.k3s_installer -->
<g id="edge27" class="edge">
<title>module.k3s.null_resource.servers_install&#45;&gt;module.k3s.data.http.k3s_installer</title>
<path fill="none" stroke="black" d="M1301.88,-342C1276.04,-342 1248.13,-342 1222.82,-342"/>
<polygon fill="black" stroke="black" points="1222.9,-338.5 1212.9,-342 1222.9,-345.5 1222.9,-338.5"/>
</g>
<!-- module.k3s.null_resource.servers_install&#45;&gt;module.k3s.null_resource.k8s_ca_certificates_install -->
<g id="edge28" class="edge">
<title>module.k3s.null_resource.servers_install&#45;&gt;module.k3s.null_resource.k8s_ca_certificates_install</title>
<path fill="none" stroke="black" d="M1371.51,-323.75C1346.78,-305.23 1305.84,-277.06 1266.25,-261 1261.7,-259.15 1257,-257.42 1252.21,-255.81"/>
<polygon fill="black" stroke="black" points="1253.65,-252.59 1243.06,-252.91 1251.53,-259.27 1253.65,-252.59"/>
</g>
<!-- module.k3s.random_password.k3s_cluster_secret -->
<g id="node24" class="node">
<title>module.k3s.random_password.k3s_cluster_secret</title>
<polygon fill="none" stroke="black" points="1259.5,-414 1015.5,-414 1015.5,-378 1259.5,-378 1259.5,-414"/>
<text text-anchor="middle" x="1137.5" y="-390.2" font-family="sans-serif" font-size="14.00">random_password.k3s_cluster_secret</text>
</g>
<!-- module.k3s.null_resource.servers_install&#45;&gt;module.k3s.random_password.k3s_cluster_secret -->
<g id="edge29" class="edge">
<title>module.k3s.null_resource.servers_install&#45;&gt;module.k3s.random_password.k3s_cluster_secret</title>
<path fill="none" stroke="black" d="M1307.28,-360.43C1284.73,-365.19 1260.3,-370.33 1237.22,-375.2"/>
<polygon fill="black" stroke="black" points="1236.55,-371.76 1227.49,-377.25 1238,-378.61 1236.55,-371.76"/>
</g>
<!-- module.k3s.null_resource.servers_label&#45;&gt;module.k3s.null_resource.servers_install -->
<g id="edge30" class="edge">
<title>module.k3s.null_resource.servers_label&#45;&gt;module.k3s.null_resource.servers_install</title>
<path fill="none" stroke="black" d="M1548.4,-252.42C1540.46,-254.98 1532.63,-257.84 1525.25,-261 1490.65,-275.84 1454.68,-299.32 1429.62,-317.18"/>
<polygon fill="black" stroke="black" points="1427.86,-314.14 1421.81,-322.84 1431.96,-319.81 1427.86,-314.14"/>
</g>
<!-- module.k3s.null_resource.servers_taint&#45;&gt;module.k3s.null_resource.servers_install -->
<g id="edge31" class="edge">
<title>module.k3s.null_resource.servers_taint&#45;&gt;module.k3s.null_resource.servers_install</title>
<path fill="none" stroke="black" d="M1551.7,-306.43C1531.28,-311.12 1509.18,-316.19 1488.25,-321"/>
<polygon fill="black" stroke="black" points="1487.53,-317.57 1478.56,-323.22 1489.09,-324.39 1487.53,-317.57"/>
</g>
<!-- module.k3s.tls_cert_request.master_user -->
<g id="node25" class="node">
<title>module.k3s.tls_cert_request.master_user</title>
<polygon fill="none" stroke="black" points="936.38,-306 744.88,-306 744.88,-270 936.38,-270 936.38,-306"/>
<text text-anchor="middle" x="840.62" y="-282.2" font-family="sans-serif" font-size="14.00">tls_cert_request.master_user</text>
</g>
<!-- module.k3s.tls_private_key.master_user -->
<g id="node28" class="node">
<title>module.k3s.tls_private_key.master_user</title>
<polygon fill="none" stroke="black" points="587.75,-306 403,-306 403,-270 587.75,-270 587.75,-306"/>
<text text-anchor="middle" x="495.38" y="-282.2" font-family="sans-serif" font-size="14.00">tls_private_key.master_user</text>
</g>
<!-- module.k3s.tls_cert_request.master_user&#45;&gt;module.k3s.tls_private_key.master_user -->
<g id="edge32" class="edge">
<title>module.k3s.tls_cert_request.master_user&#45;&gt;module.k3s.tls_private_key.master_user</title>
<path fill="none" stroke="black" d="M744.47,-288C699.47,-288 645.66,-288 599.68,-288"/>
<polygon fill="black" stroke="black" points="599.68,-284.5 589.68,-288 599.68,-291.5 599.68,-284.5"/>
</g>
<!-- module.k3s.tls_locally_signed_cert.master_user&#45;&gt;module.k3s.tls_cert_request.master_user -->
<g id="edge33" class="edge">
<title>module.k3s.tls_locally_signed_cert.master_user&#45;&gt;module.k3s.tls_cert_request.master_user</title>
<path fill="none" stroke="black" d="M1021.65,-288C997.36,-288 971.83,-288 947.87,-288"/>
<polygon fill="black" stroke="black" points="948.13,-284.5 938.13,-288 948.13,-291.5 948.13,-284.5"/>
</g>
<!-- module.k3s.tls_locally_signed_cert.master_user&#45;&gt;module.k3s.tls_self_signed_cert.kubernetes_ca_certs -->
<g id="edge34" class="edge">
<title>module.k3s.tls_locally_signed_cert.master_user&#45;&gt;module.k3s.tls_self_signed_cert.kubernetes_ca_certs</title>
<path fill="none" stroke="black" d="M1035.85,-269.57C1009.38,-264.72 980.66,-259.46 953.64,-254.51"/>
<polygon fill="black" stroke="black" points="954.53,-251.12 944.07,-252.76 953.27,-258 954.53,-251.12"/>
</g>
<!-- module.k3s.tls_private_key.kubernetes_ca -->
<g id="node27" class="node">
<title>module.k3s.tls_private_key.kubernetes_ca</title>
<polygon fill="none" stroke="black" points="594.12,-252 396.62,-252 396.62,-216 594.12,-216 594.12,-252"/>
<text text-anchor="middle" x="495.38" y="-228.2" font-family="sans-serif" font-size="14.00">tls_private_key.kubernetes_ca</text>
</g>
<!-- module.k3s.tls_self_signed_cert.kubernetes_ca_certs&#45;&gt;module.k3s.tls_private_key.kubernetes_ca -->
<g id="edge35" class="edge">
<title>module.k3s.tls_self_signed_cert.kubernetes_ca_certs&#45;&gt;module.k3s.tls_private_key.kubernetes_ca</title>
<path fill="none" stroke="black" d="M708.39,-234C674.53,-234 638.44,-234 605.83,-234"/>
<polygon fill="black" stroke="black" points="605.96,-230.5 595.96,-234 605.96,-237.5 605.96,-230.5"/>
</g>
</g>
</svg>
